<svg width="16" height="11" viewBox="0 0 16 11" fill="none" xmlns="http://www.w3.org/2000/svg">
<path d="M14.5 0.0697021H1.50001C0.672854 0.0697021 0 0.680624 0 1.43165V9.60325C0 10.3543 0.672854 10.9652 1.50001 10.9652H14.5C15.3271 10.9652 16 10.3543 16 9.60325V1.43165C16 0.680624 15.3271 0.0697021 14.5 0.0697021ZM14.5 0.977655C14.5679 0.977655 14.6325 0.990452 14.6916 1.0128L8 6.27866L1.30833 1.0128C1.36742 0.990483 1.43204 0.977655 1.49998 0.977655H14.5ZM14.5 10.0572H1.50001C1.22414 10.0572 0.999996 9.85374 0.999996 9.60322V1.97206L7.67236 7.22252C7.76661 7.29654 7.8833 7.33336 8 7.33336C8.1167 7.33336 8.23339 7.29657 8.32764 7.22252L15 1.97206V9.60325C15 9.85374 14.7759 10.0572 14.5 10.0572Z" fill="#757575"/>
</svg>
