<svg width="80" height="42" viewBox="0 0 80 42" fill="none" xmlns="http://www.w3.org/2000/svg">
<path d="M12.4022 12.7791H12.3995C10.1372 12.7791 8.30322 14.5173 8.30322 16.6616V16.6641C8.30322 18.8084 10.1372 20.5466 12.3995 20.5466H12.4022C14.6645 20.5466 16.4985 18.8084 16.4985 16.6641V16.6616C16.4985 14.5173 14.6645 12.7791 12.4022 12.7791Z" fill="#AFB1B8"/>
<path d="M42.6368 11.5379C42.6304 8.55964 41.3795 5.70504 39.1579 3.59883C36.9363 1.49262 33.925 0.306323 30.7828 0.299561V0.299561C27.6397 0.304971 24.6269 1.49067 22.4042 3.59703C20.1814 5.70338 18.9298 8.55876 18.9233 11.5379V27.9617C18.9233 27.9617 42.6341 25.4586 42.6368 11.5405V11.5379Z" fill="#AFB1B8"/>
<path d="M0 33.3521C0.00569902 35.4245 0.876554 37.4104 2.42227 38.876C3.96798 40.3416 6.06289 41.1677 8.24921 41.1738C10.4351 41.1678 12.5296 40.342 14.0752 38.8769C15.6208 37.4119 16.492 35.4266 16.4984 33.3547V21.9268C16.4984 21.9268 0 23.6697 0 33.3521ZM8.24921 35.3997C7.82196 35.3997 7.40431 35.2796 7.04907 35.0546C6.69383 34.8296 6.41696 34.5099 6.25346 34.1357C6.08996 33.7616 6.04718 33.3499 6.13053 32.9527C6.21388 32.5555 6.41962 32.1907 6.72173 31.9043C7.02383 31.6179 7.40874 31.4229 7.82778 31.3439C8.24681 31.2649 8.68115 31.3055 9.07587 31.4604C9.4706 31.6154 9.80797 31.8779 10.0453 32.2146C10.2827 32.5513 10.4094 32.9472 10.4094 33.3521C10.4105 33.6217 10.3554 33.8888 10.2473 34.1381C10.1392 34.3874 9.98026 34.614 9.77956 34.805C9.57886 34.9959 9.34036 35.1474 9.07775 35.2508C8.81513 35.3542 8.53357 35.4074 8.24921 35.4074V35.3997Z" fill="#AFB1B8"/>
<path d="M25.0889 34.2456H23.4014V35.9888H22.5225V31.7231H25.2998V32.4351H23.4014V33.5366H25.0889V34.2456ZM29.3135 33.9526C29.3135 34.3726 29.2393 34.7407 29.0908 35.0571C28.9424 35.3735 28.7295 35.6177 28.4521 35.7896C28.1768 35.9614 27.8604 36.0474 27.5029 36.0474C27.1494 36.0474 26.834 35.9624 26.5566 35.7925C26.2793 35.6226 26.0645 35.3804 25.9121 35.0659C25.7598 34.7495 25.6826 34.3862 25.6807 33.9761V33.7651C25.6807 33.3452 25.7559 32.9761 25.9062 32.6577C26.0586 32.3374 26.2725 32.0923 26.5479 31.9224C26.8252 31.7505 27.1416 31.6646 27.4971 31.6646C27.8525 31.6646 28.168 31.7505 28.4434 31.9224C28.7207 32.0923 28.9346 32.3374 29.085 32.6577C29.2373 32.9761 29.3135 33.3442 29.3135 33.7622V33.9526ZM28.4229 33.7593C28.4229 33.312 28.3428 32.9722 28.1826 32.7397C28.0225 32.5073 27.7939 32.3911 27.4971 32.3911C27.2021 32.3911 26.9746 32.5063 26.8145 32.7368C26.6543 32.9653 26.5732 33.3013 26.5713 33.7446V33.9526C26.5713 34.3882 26.6514 34.7261 26.8115 34.9663C26.9717 35.2065 27.2021 35.3267 27.5029 35.3267C27.7979 35.3267 28.0244 35.2114 28.1826 34.981C28.3408 34.7485 28.4209 34.4106 28.4229 33.9673V33.7593ZM32.1641 34.8696C32.1641 34.7036 32.1055 34.5767 31.9883 34.4888C31.8711 34.3989 31.6602 34.3052 31.3555 34.2075C31.0508 34.1079 30.8096 34.0103 30.6318 33.9146C30.1475 33.6528 29.9053 33.3003 29.9053 32.8569C29.9053 32.6265 29.9697 32.4214 30.0986 32.2417C30.2295 32.0601 30.416 31.9185 30.6582 31.8169C30.9023 31.7153 31.1758 31.6646 31.4785 31.6646C31.7832 31.6646 32.0547 31.7202 32.293 31.8315C32.5312 31.9409 32.7158 32.0962 32.8467 32.2974C32.9795 32.4985 33.0459 32.7271 33.0459 32.9829H32.167C32.167 32.7876 32.1055 32.6362 31.9824 32.5288C31.8594 32.4194 31.6865 32.3647 31.4639 32.3647C31.249 32.3647 31.082 32.4106 30.9629 32.5024C30.8438 32.5923 30.7842 32.7114 30.7842 32.8599C30.7842 32.9985 30.8535 33.1147 30.9922 33.2085C31.1328 33.3022 31.3389 33.3901 31.6104 33.4722C32.1104 33.6226 32.4746 33.8091 32.7031 34.0317C32.9316 34.2544 33.0459 34.5317 33.0459 34.8638C33.0459 35.2329 32.9062 35.5229 32.627 35.7339C32.3477 35.9429 31.9717 36.0474 31.499 36.0474C31.1709 36.0474 30.8721 35.9878 30.6025 35.8687C30.333 35.7476 30.127 35.5825 29.9844 35.3735C29.8438 35.1646 29.7734 34.9224 29.7734 34.647H30.6553C30.6553 35.1177 30.9365 35.353 31.499 35.353C31.708 35.353 31.8711 35.311 31.9883 35.2271C32.1055 35.1411 32.1641 35.022 32.1641 34.8696ZM36.8545 32.4351H35.5479V35.9888H34.6689V32.4351H33.3799V31.7231H36.8545V32.4351ZM39.9248 34.1401H38.2373V35.2827H40.2178V35.9888H37.3584V31.7231H40.2119V32.4351H38.2373V33.4517H39.9248V34.1401ZM42.3125 34.4272H41.6123V35.9888H40.7334V31.7231H42.3184C42.8223 31.7231 43.2109 31.8354 43.4844 32.0601C43.7578 32.2847 43.8945 32.6021 43.8945 33.0122C43.8945 33.3032 43.8311 33.5464 43.7041 33.7417C43.5791 33.9351 43.3887 34.0894 43.1328 34.2046L44.0557 35.9478V35.9888H43.1123L42.3125 34.4272ZM41.6123 33.7153H42.3213C42.542 33.7153 42.7129 33.6597 42.834 33.5483C42.9551 33.4351 43.0156 33.2798 43.0156 33.0825C43.0156 32.8813 42.958 32.7231 42.8428 32.6079C42.7295 32.4927 42.5547 32.4351 42.3184 32.4351H41.6123V33.7153ZM46.9385 34.4858V35.9888H46.0596V31.7231H47.7236C48.0439 31.7231 48.3252 31.7817 48.5674 31.8989C48.8115 32.0161 48.999 32.1831 49.1299 32.3999C49.2607 32.6147 49.3262 32.8599 49.3262 33.1353C49.3262 33.5532 49.1826 33.8833 48.8955 34.1255C48.6104 34.3657 48.2148 34.4858 47.709 34.4858H46.9385ZM46.9385 33.7739H47.7236C47.9561 33.7739 48.1328 33.7192 48.2539 33.6099C48.377 33.5005 48.4385 33.3442 48.4385 33.1411C48.4385 32.9321 48.377 32.7632 48.2539 32.6343C48.1309 32.5054 47.9609 32.439 47.7441 32.4351H46.9385V33.7739ZM52.499 34.1401H50.8115V35.2827H52.792V35.9888H49.9326V31.7231H52.7861V32.4351H50.8115V33.4517H52.499V34.1401ZM56.5771 32.4351H55.2705V35.9888H54.3916V32.4351H53.1025V31.7231H56.5771V32.4351ZM59.6475 34.1401H57.96V35.2827H59.9404V35.9888H57.0811V31.7231H59.9346V32.4351H57.96V33.4517H59.6475V34.1401ZM62.0352 34.4272H61.335V35.9888H60.4561V31.7231H62.041C62.5449 31.7231 62.9336 31.8354 63.207 32.0601C63.4805 32.2847 63.6172 32.6021 63.6172 33.0122C63.6172 33.3032 63.5537 33.5464 63.4268 33.7417C63.3018 33.9351 63.1113 34.0894 62.8555 34.2046L63.7783 35.9478V35.9888H62.835L62.0352 34.4272ZM61.335 33.7153H62.0439C62.2646 33.7153 62.4355 33.6597 62.5566 33.5483C62.6777 33.4351 62.7383 33.2798 62.7383 33.0825C62.7383 32.8813 62.6807 32.7231 62.5654 32.6079C62.4521 32.4927 62.2773 32.4351 62.041 32.4351H61.335V33.7153ZM66.5 34.8696C66.5 34.7036 66.4414 34.5767 66.3242 34.4888C66.207 34.3989 65.9961 34.3052 65.6914 34.2075C65.3867 34.1079 65.1455 34.0103 64.9678 33.9146C64.4834 33.6528 64.2412 33.3003 64.2412 32.8569C64.2412 32.6265 64.3057 32.4214 64.4346 32.2417C64.5654 32.0601 64.752 31.9185 64.9941 31.8169C65.2383 31.7153 65.5117 31.6646 65.8145 31.6646C66.1191 31.6646 66.3906 31.7202 66.6289 31.8315C66.8672 31.9409 67.0518 32.0962 67.1826 32.2974C67.3154 32.4985 67.3818 32.7271 67.3818 32.9829H66.5029C66.5029 32.7876 66.4414 32.6362 66.3184 32.5288C66.1953 32.4194 66.0225 32.3647 65.7998 32.3647C65.585 32.3647 65.418 32.4106 65.2988 32.5024C65.1797 32.5923 65.1201 32.7114 65.1201 32.8599C65.1201 32.9985 65.1895 33.1147 65.3281 33.2085C65.4688 33.3022 65.6748 33.3901 65.9463 33.4722C66.4463 33.6226 66.8105 33.8091 67.0391 34.0317C67.2676 34.2544 67.3818 34.5317 67.3818 34.8638C67.3818 35.2329 67.2422 35.5229 66.9629 35.7339C66.6836 35.9429 66.3076 36.0474 65.835 36.0474C65.5068 36.0474 65.208 35.9878 64.9385 35.8687C64.6689 35.7476 64.4629 35.5825 64.3203 35.3735C64.1797 35.1646 64.1094 34.9224 64.1094 34.647H64.9912C64.9912 35.1177 65.2725 35.353 65.835 35.353C66.0439 35.353 66.207 35.311 66.3242 35.2271C66.4414 35.1411 66.5 35.022 66.5 34.8696Z" fill="#AFB1B8"/>
</svg>
