<svg width="45" height="49" viewBox="0 0 45 49" fill="none" xmlns="http://www.w3.org/2000/svg">
<path d="M6 0.408936L13.3076 7.13763H33.6924V25.9075L41 32.6362V0.408936H6Z" fill="#AFB1B8"/>
<path d="M0 6.85425V38.1609H34V25.7168L13.5231 6.862L0 6.85425ZM27.5231 33.5815H5.38008V12.5262H6.9453V32.1558H27.5231V33.5815Z" fill="#AFB1B8"/>
<path d="M9.79102 44.053L10.6089 42.3684H11.2925L10.1011 44.6145V45.9231H9.48096V44.6145L8.28711 42.3684H8.97314L9.79102 44.053ZM13.3018 45.0955H11.9248L11.6367 45.9231H10.9946L12.3374 42.3684H12.8916L14.2368 45.9231H13.5923L13.3018 45.0955ZM12.0981 44.5974H13.1284L12.6133 43.1228L12.0981 44.5974ZM15.7358 44.9636C15.7358 44.7992 15.7806 44.6487 15.8701 44.512C15.9596 44.3736 16.1362 44.21 16.3999 44.0212C16.2616 43.8471 16.1647 43.699 16.1094 43.5769C16.0557 43.4548 16.0288 43.3368 16.0288 43.2229C16.0288 42.9446 16.1134 42.7249 16.2827 42.5637C16.452 42.401 16.6799 42.3196 16.9663 42.3196C17.2251 42.3196 17.4367 42.3961 17.6011 42.5491C17.7671 42.7004 17.8501 42.8884 17.8501 43.113C17.8501 43.2611 17.8127 43.3979 17.7378 43.5232C17.6629 43.6469 17.54 43.7706 17.3691 43.8943L17.1274 44.0701L17.8135 44.8806C17.9128 44.6853 17.9624 44.468 17.9624 44.2288H18.4775C18.4775 44.6666 18.375 45.0255 18.1699 45.3054L18.6924 45.9231H18.0039L17.8037 45.6863C17.5498 45.8767 17.2471 45.9719 16.8955 45.9719C16.5439 45.9719 16.2624 45.8792 16.0508 45.6936C15.8408 45.5064 15.7358 45.2631 15.7358 44.9636ZM16.9126 45.4983C17.1128 45.4983 17.3 45.4316 17.4741 45.2981L16.6978 44.3826L16.6221 44.4363C16.4268 44.5844 16.3291 44.7537 16.3291 44.9441C16.3291 45.1085 16.382 45.2419 16.4878 45.3445C16.5936 45.447 16.7352 45.4983 16.9126 45.4983ZM16.5854 43.2083C16.5854 43.345 16.6693 43.5167 16.8369 43.7234L17.1079 43.5378L17.1836 43.4768C17.2845 43.3873 17.335 43.2725 17.335 43.1326C17.335 43.0398 17.3 42.9609 17.23 42.8958C17.16 42.829 17.0713 42.7957 16.9639 42.7957C16.8483 42.7957 16.7563 42.8347 16.688 42.9128C16.6196 42.991 16.5854 43.0894 16.5854 43.2083ZM23.043 44.7659C23.0072 45.1451 22.8672 45.4413 22.623 45.6545C22.3789 45.8661 22.0542 45.9719 21.6489 45.9719C21.3657 45.9719 21.1159 45.9052 20.8994 45.7717C20.6846 45.6366 20.5186 45.4454 20.4014 45.198C20.2842 44.9506 20.2231 44.6633 20.2183 44.3362V44.0042C20.2183 43.6689 20.2777 43.3735 20.3965 43.1179C20.5153 42.8624 20.6854 42.6654 20.9067 42.5271C21.1297 42.3888 21.3869 42.3196 21.6782 42.3196C22.0705 42.3196 22.3862 42.4262 22.6255 42.6394C22.8647 42.8526 23.0039 43.1537 23.043 43.5427H22.4277C22.3984 43.2872 22.3236 43.1033 22.2031 42.991C22.0843 42.877 21.9093 42.8201 21.6782 42.8201C21.4097 42.8201 21.203 42.9185 21.0581 43.1155C20.9149 43.3108 20.8416 43.5981 20.8384 43.9773V44.2922C20.8384 44.6764 20.9067 44.9693 21.0435 45.1711C21.1818 45.373 21.3836 45.4739 21.6489 45.4739C21.8914 45.4739 22.0737 45.4194 22.1958 45.3103C22.3179 45.2013 22.3952 45.0198 22.4277 44.7659H23.043ZM26.4341 44.2385C26.4341 44.5868 26.3739 44.8928 26.2534 45.1565C26.133 45.4185 25.9604 45.6204 25.7358 45.762C25.5129 45.9019 25.2557 45.9719 24.9644 45.9719C24.6763 45.9719 24.4191 45.9019 24.1929 45.762C23.9683 45.6204 23.7941 45.4194 23.6704 45.1589C23.5483 44.8985 23.4865 44.5982 23.4849 44.2581V44.0579C23.4849 43.7112 23.5459 43.4052 23.668 43.1399C23.7917 42.8746 23.965 42.672 24.188 42.532C24.4126 42.3904 24.6698 42.3196 24.9595 42.3196C25.2492 42.3196 25.5055 42.3896 25.7285 42.5295C25.9531 42.6679 26.1265 42.8681 26.2485 43.1301C26.3706 43.3905 26.4325 43.6941 26.4341 44.0408V44.2385ZM25.8164 44.053C25.8164 43.6591 25.7415 43.3572 25.5918 43.1472C25.4437 42.9373 25.2329 42.8323 24.9595 42.8323C24.6925 42.8323 24.4834 42.9373 24.332 43.1472C24.1823 43.3556 24.1058 43.651 24.1025 44.0334V44.2385C24.1025 44.6292 24.1782 44.9311 24.3296 45.1443C24.4826 45.3575 24.6942 45.4641 24.9644 45.4641C25.2378 45.4641 25.4478 45.3599 25.5942 45.1516C25.7424 44.9433 25.8164 44.6389 25.8164 44.2385V44.053Z" fill="#AFB1B8"/>
</svg>
