<svg width="89" height="45" viewBox="0 0 89 45" fill="none" xmlns="http://www.w3.org/2000/svg">
<path d="M44.7404 21.1233C44.3224 20.5298 44.1225 19.8284 44.1699 19.1224V16.2214C44.1699 15.3322 44.359 14.6563 44.7372 14.194C45.1154 13.7317 45.7649 13.5015 46.6858 13.5034C47.5512 13.5034 48.1654 13.7002 48.5287 14.0937C48.9249 14.5957 49.1176 15.2097 49.0735 15.8289V16.5106H47.5255V15.8201C47.531 15.594 47.516 15.368 47.4807 15.1443C47.4584 14.9913 47.3804 14.8498 47.2595 14.7429C47.1006 14.6277 46.9003 14.5718 46.6987 14.5865C46.4866 14.5719 46.2762 14.6309 46.1089 14.7518C45.9741 14.8702 45.8842 15.0254 45.8525 15.1944C45.8081 15.4312 45.7878 15.6713 45.7916 15.9116V19.4323C45.7672 19.7719 45.8355 20.1118 45.9904 20.4209C46.0673 20.5255 46.1743 20.6084 46.2993 20.6605C46.4243 20.7126 46.5625 20.7318 46.6987 20.716C46.897 20.731 47.0937 20.6738 47.2467 20.5567C47.3728 20.4414 47.454 20.2909 47.4775 20.1287C47.5136 19.8952 47.5297 19.6593 47.5255 19.4234V18.7092H49.0735V19.3614C49.117 20.007 48.9289 20.6477 48.5383 21.1852C48.1825 21.6161 47.5768 21.8315 46.6858 21.8315C45.7949 21.8315 45.1218 21.6014 44.7404 21.1233Z" fill="#AFB1B8"/>
<path d="M51.1856 21.1528C50.7946 20.7013 50.5991 20.0432 50.5991 19.1726V16.1211C50.5991 15.2594 50.7946 14.6072 51.1856 14.1645C51.5766 13.7218 52.2304 13.5015 53.147 13.5034C54.0572 13.5034 54.7078 13.7238 55.0988 14.1645C55.4898 14.6072 55.6885 15.2594 55.6885 16.1211V19.1726C55.6885 20.0343 55.4898 20.6954 55.0924 21.1498C54.695 21.6043 54.0476 21.8315 53.147 21.8315C52.2464 21.8315 51.5798 21.6014 51.1856 21.1528ZM53.8681 20.4209C54.0081 20.1381 54.0719 19.8283 54.054 19.5179V15.7817C54.072 15.4773 54.0093 15.1735 53.8713 14.8964C53.7928 14.7896 53.6832 14.7053 53.5551 14.6531C53.4271 14.6009 53.2856 14.5829 53.147 14.6013C53.0079 14.5834 52.8662 14.6016 52.7377 14.6537C52.6093 14.7058 52.4991 14.7898 52.4195 14.8964C52.2786 15.1727 52.2147 15.477 52.2336 15.7817V19.5356C52.2141 19.8461 52.278 20.1562 52.4195 20.4386C52.5097 20.5338 52.6211 20.6101 52.746 20.6624C52.8709 20.7147 53.0066 20.7417 53.1438 20.7417C53.281 20.7417 53.4167 20.7147 53.5416 20.6624C53.6665 20.6101 53.7779 20.5338 53.8681 20.4386V20.4209Z" fill="#AFB1B8"/>
<path d="M57.5505 13.5925H59.2171L60.4702 19.2226L61.7522 13.5925H63.3739L63.5374 21.719H62.3387L62.2105 16.0712L60.9734 21.719H60.0119L58.7299 16.0505L58.6114 21.719H57.3999L57.5505 13.5925Z" fill="#AFB1B8"/>
<path d="M65.4061 13.5925H68.0021C69.4977 13.5925 70.2455 14.3617 70.2455 15.9C70.2455 17.3735 69.4581 18.1092 67.8835 18.1072H66.9989V21.719H65.3965L65.4061 13.5925ZM67.6239 17.0656C67.7822 17.0841 67.943 17.0707 68.0952 17.0264C68.2474 16.9821 68.3873 16.9079 68.5052 16.8089C68.689 16.5344 68.77 16.2121 68.736 15.8912C68.7444 15.6433 68.7185 15.3954 68.6591 15.1535C68.6362 15.0727 68.5961 14.9969 68.5411 14.9305C68.486 14.8642 68.4172 14.8085 68.3386 14.7669C68.1161 14.6687 67.8702 14.624 67.6239 14.6371H67.0021V17.0656H67.6239Z" fill="#AFB1B8"/>
<path d="M72.5559 13.5925H74.277L76.0428 21.719H74.5494L74.2 19.8452H72.6649L72.3059 21.719H70.79L72.5559 13.5925ZM74.027 18.9039L73.4277 15.4928L72.8283 18.9039H74.027Z" fill="#AFB1B8"/>
<path d="M77.469 13.5925H78.5908L80.7381 18.2282V13.5925H82.0681V21.719H81.0009L78.8407 16.8797V21.719H77.4658L77.469 13.5925Z" fill="#AFB1B8"/>
<path d="M85.1836 18.6205L83.3984 13.6038H84.9015L85.9912 16.8262L87.0136 13.6038H88.4846L86.7219 18.6205V21.719H85.1836V18.6205Z" fill="#AFB1B8"/>
<path d="M47.2146 25.2722V25.6972H45.907V28.9995H45.3589V25.6972H44.0449V25.2722H47.2146Z" fill="#AFB1B8"/>
<path d="M51.3141 28.9997H50.891C50.8481 29.0022 50.8057 28.9895 50.7724 28.9643C50.7404 28.9427 50.7159 28.9129 50.7019 28.8787L50.3238 27.9935H48.5097L48.1316 28.8787C48.1208 28.9158 48.1011 28.95 48.0739 28.9791C48.0403 29.0038 47.9982 29.0164 47.9553 29.0145H47.5322L49.1347 25.2876H49.6924L51.3141 28.9997ZM48.6604 27.6158H50.1731L49.5321 26.0991C49.4848 25.9844 49.4452 25.8671 49.4135 25.7479C49.3911 25.8187 49.3719 25.8866 49.3526 25.9456L49.295 26.102L48.6604 27.6158Z" fill="#AFB1B8"/>
<path d="M54.0766 28.6337C54.177 28.6385 54.2775 28.6385 54.3779 28.6337C54.4645 28.6254 54.5503 28.6106 54.6343 28.5894C54.7128 28.5717 54.7899 28.549 54.865 28.5215C54.9356 28.4949 55.0061 28.4625 55.0798 28.43V27.5918H54.4388C54.4229 27.5926 54.4071 27.5905 54.3922 27.5854C54.3773 27.5803 54.3637 27.5724 54.3523 27.5623C54.3417 27.5539 54.3334 27.5435 54.3279 27.5317C54.3223 27.52 54.3197 27.5072 54.3202 27.4944V27.2081H55.5637V28.6366C55.4622 28.7035 55.355 28.7627 55.2432 28.8137C55.129 28.8656 55.0099 28.9081 54.8875 28.9406C54.7564 28.9761 54.6224 29.0018 54.4869 29.0173C54.3315 29.0332 54.1753 29.0411 54.0189 29.0409C53.7425 29.0431 53.4683 28.996 53.2113 28.9022C52.9714 28.8134 52.7534 28.6809 52.5703 28.5126C52.3919 28.3427 52.2514 28.1421 52.1569 27.9224C52.0559 27.6753 52.0059 27.4131 52.0095 27.1491C52.0061 26.8835 52.055 26.6195 52.1537 26.3699C52.2459 26.1491 52.3866 25.9481 52.5671 25.7797C52.75 25.612 52.9681 25.4804 53.2081 25.393C53.4825 25.298 53.7738 25.2509 54.067 25.2543C54.2162 25.2541 54.3652 25.265 54.5125 25.2868C54.6428 25.3063 54.7706 25.338 54.8939 25.3812C55.006 25.42 55.1134 25.4695 55.2144 25.5288C55.3126 25.587 55.4058 25.6522 55.4932 25.7236L55.3394 25.9538C55.3273 25.9748 55.3094 25.9925 55.2874 26.005C55.2654 26.0174 55.2402 26.0242 55.2144 26.0246C55.1789 26.0236 55.1445 26.0133 55.115 25.9951C55.067 25.9715 55.0157 25.942 54.958 25.9066C54.8898 25.8672 54.818 25.8336 54.7433 25.8062C54.6477 25.7709 54.5491 25.7433 54.4484 25.7236C54.3142 25.7008 54.1779 25.69 54.0414 25.6911C53.8299 25.689 53.62 25.724 53.4228 25.7944C53.2445 25.8603 53.0838 25.961 52.9517 26.0896C52.8189 26.2236 52.7174 26.3813 52.6536 26.5529C52.5105 26.9566 52.5105 27.3918 52.6536 27.7955C52.7238 27.9707 52.833 28.1306 52.9741 28.2647C53.1056 28.3926 53.2651 28.4932 53.4421 28.5599C53.6458 28.6243 53.8619 28.6494 54.0766 28.6337Z" fill="#AFB1B8"/>
<path d="M59.1851 28.5745H60.9351V28.9995H58.6499V25.2722H59.198L59.1851 28.5745Z" fill="#AFB1B8"/>
<path d="M62.7556 28.9995H62.2075V25.2722H62.7556V28.9995Z" fill="#AFB1B8"/>
<path d="M64.7939 25.29C64.8265 25.3071 64.8548 25.3302 64.8772 25.3579L67.22 28.1675C67.2168 28.1233 67.2168 28.0789 67.22 28.0347C67.22 27.9934 67.22 27.9521 67.22 27.9137V25.2576H67.6975V28.9998H67.4219C67.3811 29.0029 67.3401 28.9957 67.3033 28.9791C67.27 28.9606 67.2407 28.9366 67.2168 28.9083L64.8772 26.1016C64.8772 26.1459 64.8772 26.1872 64.8772 26.2285C64.8772 26.2699 64.8772 26.3082 64.8772 26.3436V28.9998H64.4189V25.2723H64.7042C64.7351 25.2724 64.7657 25.2784 64.7939 25.29Z" fill="#AFB1B8"/>
<path d="M71.7323 25.2722V25.6824H69.7901V26.9131H71.3637V27.3085H69.7901V28.5805H71.7323V28.9907H69.2261V25.2722H71.7323Z" fill="#AFB1B8"/>
<path d="M14.3035 2.2547L38.6385 8.61709V30.912L14.3035 24.5526V2.2547ZM12.7427 0.354248V25.6356L40.196 32.8154V7.53702L12.7427 0.354248Z" fill="#AFB1B8"/>
<path d="M27.4565 44.5513L0 37.3655V12.0869L27.4565 19.2697V44.5513Z" fill="#AFB1B8"/>
<path d="M13.1978 1.96843L37.2155 8.25107L27.0014 17.6588L2.98057 11.3732L13.1978 1.96843ZM12.7427 0.354248L0 12.0873L27.4565 19.27L40.196 7.53693L12.7427 0.354248Z" fill="#AFB1B8"/>
<path d="M29.0015 43.1292L40.1962 32.8185L29.0015 29.8882V43.1292Z" fill="#AFB1B8"/>
</svg>
