<svg width="41" height="42" viewBox="0 0 41 42" fill="none" xmlns="http://www.w3.org/2000/svg">
<path d="M6.34566 40.9507C6.36067 40.9511 6.37546 40.9542 6.38915 40.9599C6.40284 40.9657 6.41516 40.9739 6.42539 40.9841L6.63116 41.1938C6.47144 41.3636 6.27403 41.4994 6.05243 41.592C5.79293 41.6929 5.51326 41.7417 5.23192 41.735C4.96755 41.74 4.70488 41.6946 4.46028 41.6015C4.23964 41.516 4.04139 41.3875 3.87898 41.2248C3.71321 41.0561 3.58553 40.8583 3.50344 40.6432C3.41355 40.4033 3.36916 40.1509 3.37226 39.897C3.36861 39.6415 3.4166 39.3876 3.51373 39.1484C3.60359 38.9319 3.73912 38.7342 3.91241 38.5668C4.08805 38.4026 4.29815 38.2736 4.52973 38.1877C4.78306 38.0967 5.05283 38.0514 5.32452 38.0542C5.57689 38.0485 5.82792 38.0899 6.06272 38.1758C6.26644 38.2577 6.45349 38.3714 6.61573 38.5119L6.4434 38.736C6.43149 38.7518 6.41669 38.7655 6.39967 38.7766C6.37934 38.7895 6.35477 38.7954 6.33022 38.7932C6.30353 38.7915 6.27779 38.7833 6.25563 38.7694L6.16303 38.7098L6.03443 38.6335C5.97891 38.6052 5.92133 38.5805 5.86209 38.5596C5.78581 38.5343 5.70756 38.5144 5.62803 38.5C5.52709 38.4828 5.42457 38.4748 5.32195 38.4762C5.12631 38.4739 4.93215 38.508 4.75093 38.5763C4.58192 38.6396 4.42937 38.7355 4.30338 38.8576C4.17512 38.9875 4.07629 39.1399 4.01273 39.3058C3.94029 39.4956 3.90458 39.6957 3.90727 39.897C3.90418 40.1014 3.93988 40.3048 4.01273 40.4977C4.07549 40.6622 4.1725 40.8137 4.29823 40.9435C4.41604 41.0646 4.56206 41.1592 4.72521 41.2201C4.89311 41.2846 5.07333 41.317 5.25507 41.3154C5.36005 41.3169 5.465 41.3105 5.56887 41.2964C5.73848 41.2772 5.90118 41.2226 6.04472 41.1366C6.11671 41.0926 6.18467 41.0432 6.24792 40.9888C6.27436 40.9654 6.30914 40.9519 6.34566 40.9507Z" fill="#AFB1B8"/>
<path d="M12.2871 39.8966C12.2903 40.1495 12.2432 40.4008 12.1482 40.6379C12.0644 40.853 11.9323 41.0492 11.7608 41.2135C11.5892 41.3778 11.382 41.5066 11.1528 41.5914C10.6492 41.7694 10.0925 41.7694 9.58896 41.5914C9.36125 41.5053 9.15539 41.3762 8.98452 41.2124C8.81305 41.045 8.68004 40.8472 8.59356 40.6308C8.40827 40.1507 8.40827 39.6259 8.59356 39.1458C8.6813 38.9293 8.81414 38.7309 8.98452 38.5619C9.15685 38.4031 9.3626 38.279 9.58896 38.1972C10.0919 38.016 10.6499 38.016 11.1528 38.1972C11.3813 38.2832 11.588 38.4122 11.7598 38.5762C11.9292 38.7418 12.0612 38.9371 12.1482 39.1506C12.2435 39.3893 12.2906 39.6422 12.2871 39.8966ZM11.747 39.8966C11.751 39.6943 11.718 39.4928 11.6492 39.3008C11.5916 39.1362 11.4979 38.9845 11.374 38.855C11.2534 38.7326 11.1049 38.6365 10.9393 38.5738C10.5734 38.4434 10.1684 38.4434 9.80245 38.5738C9.63684 38.6365 9.48836 38.7326 9.36776 38.855C9.24215 38.9837 9.14747 39.1356 9.08997 39.3008C8.9591 39.6888 8.9591 40.1045 9.08997 40.4925C9.14803 40.6574 9.24265 40.8092 9.36776 40.9383C9.48851 41.06 9.637 41.1552 9.80245 41.2171C10.169 41.3441 10.5728 41.3441 10.9393 41.2171C11.1048 41.1552 11.2533 41.06 11.374 40.9383C11.4974 40.8085 11.591 40.6568 11.6492 40.4925C11.7183 40.3005 11.7513 40.099 11.747 39.8966Z" fill="#AFB1B8"/>
<path d="M16.3408 40.5214L16.3948 40.6549C16.4154 40.6072 16.4334 40.5643 16.4539 40.5214C16.4736 40.4766 16.4959 40.4328 16.5208 40.3903L17.8352 38.176C17.8609 38.1379 17.884 38.114 17.9098 38.1069C17.9447 38.097 17.9813 38.093 18.0178 38.095H18.4062V41.6965H17.9458V39.0484C17.9458 39.015 17.9458 38.9769 17.9458 38.9364C17.9433 38.8951 17.9433 38.8537 17.9458 38.8124L16.6237 41.0577C16.6069 41.0914 16.58 41.1198 16.5463 41.1397C16.5125 41.1595 16.4733 41.17 16.4334 41.1698H16.3588C16.3187 41.1703 16.2794 41.16 16.2456 41.1401C16.2118 41.1202 16.185 41.0916 16.1684 41.0577L14.8078 38.7981C14.8078 38.841 14.8078 38.8839 14.8078 38.9268C14.8078 38.9697 14.8078 39.0079 14.8078 39.0412V41.6894H14.3628V38.095H14.7512C14.7877 38.093 14.8243 38.097 14.8592 38.1069C14.8911 38.1215 14.9165 38.146 14.9312 38.176L16.2739 40.3927C16.3003 40.4337 16.3227 40.4768 16.3408 40.5214Z" fill="#AFB1B8"/>
<path d="M21.2869 40.3424V41.6914H20.7725V38.0948H21.9196C22.1362 38.091 22.3521 38.1175 22.5601 38.1735C22.7266 38.2172 22.881 38.2936 23.0128 38.3975C23.127 38.4949 23.2151 38.6157 23.27 38.7503C23.3307 38.897 23.3604 39.0532 23.3575 39.2103C23.3597 39.368 23.3274 39.5245 23.2623 39.6703C23.2005 39.8083 23.1054 39.9314 22.9845 40.0302C22.8525 40.1384 22.6974 40.2196 22.5292 40.2685C22.329 40.3278 22.1195 40.356 21.9093 40.3519L21.2869 40.3424ZM21.2869 39.9563H21.9093C22.0446 39.9579 22.1792 39.9394 22.308 39.9015C22.4143 39.8683 22.5123 39.8156 22.5961 39.7465C22.6734 39.6806 22.7332 39.599 22.771 39.5082C22.8131 39.4121 22.8341 39.3092 22.8327 39.2055C22.8387 39.1055 22.8211 39.0055 22.7811 38.9125C22.7412 38.8195 22.6798 38.7357 22.6013 38.6669C22.4047 38.5247 22.1579 38.4558 21.9093 38.4738H21.2869V39.9563Z" fill="#AFB1B8"/>
<path d="M28.2007 41.6964H27.7943C27.7536 41.6979 27.7135 41.6861 27.6812 41.663C27.652 41.6406 27.6291 41.612 27.6143 41.5796L27.2645 40.7095H25.5077L25.145 41.5796C25.1317 41.6114 25.1095 41.6394 25.0807 41.6607C25.048 41.6851 25.007 41.6978 24.965 41.6964H24.5586L26.1019 38.0945H26.6369L28.2007 41.6964ZM25.6543 40.3591H27.105L26.4928 38.8931C26.4461 38.7828 26.4074 38.6697 26.3771 38.5546L26.3179 38.7429C26.2999 38.8001 26.2794 38.8525 26.2614 38.8954L25.6543 40.3591Z" fill="#AFB1B8"/>
<path d="M30.4233 38.1112C30.4541 38.1269 30.4805 38.1489 30.5005 38.1756L32.7511 40.8907C32.7511 40.8478 32.7511 40.8049 32.7511 40.7644C32.7511 40.7239 32.7511 40.6833 32.7511 40.6452V38.0946H33.2115V41.6964H32.9543C32.9178 41.6975 32.8816 41.6901 32.8489 41.675C32.8171 41.6578 32.7892 41.6352 32.7666 41.6082L30.5185 38.8955C30.521 38.9368 30.521 38.9782 30.5185 39.0195C30.5185 39.06 30.5185 39.0957 30.5185 39.1291V41.6964H30.0581V38.0946H30.3308C30.3626 38.0937 30.3942 38.0994 30.4233 38.1112Z" fill="#AFB1B8"/>
<path d="M37.0028 40.2639V41.6941H36.4883V40.2639L35.0659 38.0947H35.5263C35.566 38.0925 35.6052 38.1035 35.6369 38.1256C35.6649 38.1488 35.6884 38.1762 35.7064 38.2067L36.5964 39.6059C36.6324 39.6655 36.6632 39.7204 36.689 39.7728C36.7147 39.8252 36.7353 39.8753 36.7533 39.9254L36.8201 39.7704C36.8451 39.7138 36.8743 39.6588 36.9076 39.6059L37.7847 38.1972C37.8031 38.169 37.8256 38.1434 37.8516 38.1209C37.8821 38.0962 37.9217 38.0834 37.9622 38.0851H38.4277L37.0028 40.2639Z" fill="#AFB1B8"/>
<path d="M16.0859 32.0507C16.3097 32.0769 16.5361 32.0984 16.765 32.1174C20.2356 30.6787 23.1716 28.324 25.206 25.3476C27.2404 22.3712 28.283 18.9051 28.2033 15.3827L24.3785 11.8384C25.1562 15.5887 24.7925 19.4655 23.3279 23.0352C21.8634 26.6048 19.3559 29.7264 16.0859 32.0507Z" fill="#AFB1B8"/>
<path d="M14.7202 31.8857L14.8231 31.9048C18.3173 29.5887 20.9814 26.3546 22.4708 22.6205C23.9601 18.8864 24.2063 14.8242 23.1774 10.959L17.7296 5.91089C19.9331 10.0604 20.82 14.7042 20.2873 19.3024C19.7546 23.9007 17.824 28.2642 14.7202 31.8857Z" fill="#AFB1B8"/>
<path d="M33.1959 19.5442C32.2704 23.4146 30.0225 26.9053 26.7861 29.4979C25.841 30.2593 24.8214 30.9375 23.7407 31.5239C26.3761 30.8061 28.7983 29.5371 30.8207 27.8146C32.8432 26.0922 34.4117 23.9623 35.4054 21.5893L33.1959 19.5442Z" fill="#AFB1B8"/>
<path d="M32.3292 18.9744L29.1835 16.0593C29.1233 19.3828 28.1037 22.6308 26.2306 25.4656C24.3575 28.3004 21.6993 30.6186 18.5322 32.1792H18.5477C19.2534 32.1789 19.9586 32.1399 20.6594 32.0624C23.6192 30.9429 26.2339 29.1618 28.2702 26.8781C30.3064 24.5944 31.7009 21.879 32.3292 18.9744Z" fill="#AFB1B8"/>
<path d="M15.1757 3.78191L11.4229 0.299561C8.06808 1.5009 5.18278 3.6128 3.14464 6.35887C1.1065 9.10493 0.0104686 12.3572 0 15.6901H0C0.0125737 19.3728 1.3502 22.9464 3.80116 25.8454C6.25213 28.7443 9.67642 30.803 13.5321 31.6956C16.974 27.8096 18.9892 23.0079 19.2847 17.9881C19.5803 12.9682 18.1409 7.99182 15.1757 3.78191Z" fill="#AFB1B8"/>
<path d="M41.0002 18.4383C40.9867 14.069 39.1076 9.88223 35.7735 6.79266C32.4394 3.70308 27.9213 1.9618 23.2062 1.94923C21.0274 1.94714 18.8671 2.31971 16.835 3.04802L39.8119 24.3398C40.5987 22.4577 41.0016 20.4567 41.0002 18.4383Z" fill="#AFB1B8"/>
</svg>
