<svg width="10" height="15" viewBox="0 0 10 15" fill="none" xmlns="http://www.w3.org/2000/svg">
<path d="M8.5 0.097168H1.5C0.672848 0.097168 0 0.708086 0 1.45911V13.2626C0 14.0136 0.672848 14.6245 1.5 14.6245H8.5C9.32715 14.6245 10 14.0136 10 13.2626V1.45911C10 0.708086 9.32715 0.097168 8.5 0.097168ZM1.5 1.00513H8.5C8.77588 1.00513 9 1.20862 9 1.45911V10.9927H1V1.45911C1 1.20862 1.22412 1.00513 1.5 1.00513ZM8.5 13.7165H1.5C1.22412 13.7165 1 13.513 1 13.2626V11.9006H9V13.2626C9 13.513 8.77588 13.7165 8.5 13.7165Z" fill="#757575"/>
<path d="M2.35355 12.4876C2.54882 12.665 2.54882 12.9525 2.35355 13.1299C2.15828 13.3072 1.84172 13.3072 1.64645 13.1299C1.45118 12.9525 1.45118 12.665 1.64645 12.4876C1.84172 12.3103 2.15828 12.3103 2.35355 12.4876Z" fill="#757575"/>
</svg>
